<?xml version="1.0" encoding="UTF-8" standalone="no"?>
<!DOCTYPE svg PUBLIC "-//W3C//DTD SVG 1.1//EN"
 "http://www.w3.org/Graphics/SVG/1.1/DTD/svg11.dtd">
<!-- Generated by graphviz version 2.43.0 (0)
 -->
<!-- Title: bpf_structures Pages: 1 -->
<svg width="835pt" height="396pt"
 viewBox="0.00 0.00 835.00 395.67" xmlns="http://www.w3.org/2000/svg" xmlns:xlink="http://www.w3.org/1999/xlink">
<g id="graph0" class="graph" transform="scale(1 1) rotate(0) translate(4 391.67)">
<title>bpf_structures</title>
<polygon fill="white" stroke="transparent" points="-4,4 -4,-391.67 831,-391.67 831,4 -4,4"/>
<!-- bpf_prog -->
<g id="node1" class="node">
<title>bpf_prog</title>
<polygon fill="#b8e6e6" stroke="transparent" points="313.5,-366.67 313.5,-382.67 512.5,-382.67 512.5,-366.67 313.5,-366.67"/>
<text text-anchor="start" x="367.5" y="-373.27" font-family="Courier New" font-weight="bold" font-size="10.50">struct bpf_prog</text>
<polygon fill="#b8e6e6" stroke="transparent" points="313.5,-348.67 313.5,-366.67 464.5,-366.67 464.5,-348.67 313.5,-348.67"/>
<polygon fill="none" stroke="black" points="313.5,-348.67 313.5,-366.67 464.5,-366.67 464.5,-348.67 313.5,-348.67"/>
<text text-anchor="start" x="316.5" y="-355.27" font-family="Courier New" font-size="10.50">u32 len</text>
<polygon fill="white" stroke="transparent" points="464.5,-348.67 464.5,-366.67 512.5,-366.67 512.5,-348.67 464.5,-348.67"/>
<text text-anchor="start" x="466.5" y="-355.27" font-family="Courier New" font-size="10.50" fill="gray">指令数</text>
<polygon fill="#b8e6e6" stroke="transparent" points="313.5,-330.67 313.5,-348.67 464.5,-348.67 464.5,-330.67 313.5,-330.67"/>
<polygon fill="none" stroke="black" points="313.5,-330.67 313.5,-348.67 464.5,-348.67 464.5,-330.67 313.5,-330.67"/>
<text text-anchor="start" x="316.5" y="-337.27" font-family="Courier New" font-size="10.50">struct bpf_insn insnsi[]</text>
<polygon fill="white" stroke="transparent" points="464.5,-330.67 464.5,-348.67 512.5,-348.67 512.5,-330.67 464.5,-330.67"/>
<text text-anchor="start" x="466.5" y="-337.27" font-family="Courier New" font-size="10.50" fill="gray">bpf指令</text>
<polygon fill="none" stroke="black" points="312,-329.67 312,-383.67 513,-383.67 513,-329.67 312,-329.67"/>
</g>
<!-- perf_event -->
<g id="node2" class="node">
<title>perf_event</title>
<polygon fill="#ffe6b8" stroke="transparent" points="8,-163.67 8,-235.67 215,-235.67 215,-163.67 8,-163.67"/>
<text text-anchor="start" x="60.5" y="-225.27" font-family="Courier New" font-weight="bold" font-size="10.50">struct perf_event</text>
<polygon fill="none" stroke="black" points="9.5,-200.67 9.5,-218.67 214.5,-218.67 214.5,-200.67 9.5,-200.67"/>
<text text-anchor="start" x="12.5" y="-207.27" font-family="Courier New" font-size="10.50">struct trace_event_call *tp_event</text>
<polygon fill="none" stroke="black" points="9.5,-182.67 9.5,-200.67 214.5,-200.67 214.5,-182.67 9.5,-182.67"/>
<text text-anchor="start" x="12.5" y="-189.27" font-family="Courier New" font-size="10.50">struct hlist_node hlist_entry</text>
<polygon fill="none" stroke="black" points="9.5,-164.67 9.5,-182.67 214.5,-182.67 214.5,-164.67 9.5,-164.67"/>
<text text-anchor="start" x="12.5" y="-171.27" font-family="Courier New" font-size="10.50">struct bpf_prog *prog</text>
<polygon fill="none" stroke="black" points="8,-163.67 8,-235.67 215,-235.67 215,-163.67 8,-163.67"/>
</g>
<!-- perf_event&#45;&gt;bpf_prog -->
<g id="edge4" class="edge">
<title>perf_event:prog&#45;&gt;bpf_prog</title>
<path fill="none" stroke="#e63946" stroke-width="1.5" d="M215.5,-173.67C249.13,-173.67 230.14,-214.54 252.5,-239.67 280.65,-271.29 318.83,-299.38 350.84,-320"/>
<polygon fill="#e63946" stroke="#e63946" stroke-width="1.5" points="349.37,-323.21 359.69,-325.61 353.12,-317.3 349.37,-323.21"/>
</g>
<!-- trace_event_call -->
<g id="node3" class="node">
<title>trace_event_call</title>
<polygon fill="#c8e6c8" stroke="transparent" points="289,-172.67 289,-226.67 532,-226.67 532,-172.67 289,-172.67"/>
<text text-anchor="start" x="341.5" y="-216.27" font-family="Courier New" font-weight="bold" font-size="10.50">struct trace_event_call</text>
<polygon fill="none" stroke="black" points="290.5,-191.67 290.5,-209.67 531.5,-209.67 531.5,-191.67 290.5,-191.67"/>
<text text-anchor="start" x="293.5" y="-198.27" font-family="Courier New" font-size="10.50">struct hlist_head __percpu *perf_events</text>
<polygon fill="none" stroke="black" points="290.5,-173.67 290.5,-191.67 531.5,-191.67 531.5,-173.67 290.5,-173.67"/>
<text text-anchor="start" x="293.5" y="-180.27" font-family="Courier New" font-size="10.50">struct bpf_prog_array __rcu *prog_array</text>
<polygon fill="none" stroke="black" points="289,-172.67 289,-226.67 532,-226.67 532,-172.67 289,-172.67"/>
</g>
<!-- perf_event&#45;&gt;trace_event_call -->
<g id="edge1" class="edge">
<title>perf_event:tp_event&#45;&gt;trace_event_call:title</title>
<path fill="none" stroke="#2e86ab" stroke-width="1.5" d="M215.5,-209.67C244.96,-209.67 254.4,-216.01 279.49,-217.4"/>
<polygon fill="#2e86ab" stroke="#2e86ab" stroke-width="1.5" points="279.41,-220.9 289.5,-217.67 279.6,-213.9 279.41,-220.9"/>
</g>
<!-- perf_event&#45;&gt;trace_event_call -->
<g id="edge6" class="edge">
<title>perf_event:hlist_entry&#45;&gt;trace_event_call:perf_events</title>
<path fill="none" stroke="#95a5a6" stroke-width="1.5" stroke-dasharray="5,2" d="M215.5,-191.67C245.01,-191.67 254.37,-198.8 279.47,-200.37"/>
<polygon fill="#95a5a6" stroke="#95a5a6" stroke-width="1.5" points="279.4,-203.87 289.5,-200.67 279.61,-196.87 279.4,-203.87"/>
</g>
<!-- trace_event_call&#45;&gt;perf_event -->
<g id="edge7" class="edge">
<title>trace_event_call:perf_events&#45;&gt;perf_event:hlist_entry</title>
<path fill="none" stroke="#95a5a6" stroke-width="1.5" stroke-dasharray="5,2" d="M289.5,-200.67C259.99,-200.67 250.63,-193.53 225.53,-191.96"/>
<polygon fill="#95a5a6" stroke="#95a5a6" stroke-width="1.5" points="225.6,-188.47 215.5,-191.67 225.39,-195.46 225.6,-188.47"/>
</g>
<!-- bpf_prog_array -->
<g id="node4" class="node">
<title>bpf_prog_array</title>
<polygon fill="#e6c8c8" stroke="transparent" points="606,-172.67 606,-226.67 819,-226.67 819,-172.67 606,-172.67"/>
<text text-anchor="start" x="649.5" y="-216.27" font-family="Courier New" font-weight="bold" font-size="10.50">struct bpf_prog_array</text>
<polygon fill="none" stroke="black" points="607.5,-191.67 607.5,-209.67 818.5,-209.67 818.5,-191.67 607.5,-191.67"/>
<text text-anchor="start" x="610.5" y="-198.27" font-family="Courier New" font-size="10.50">struct bpf_prog_array_item items[]</text>
<polygon fill="none" stroke="black" points="607.5,-173.67 607.5,-191.67 818.5,-191.67 818.5,-173.67 607.5,-173.67"/>
<text text-anchor="start" x="610.5" y="-180.27" font-family="Courier New" font-size="10.50">struct bpf_prog *prog</text>
<polygon fill="none" stroke="black" points="606,-172.67 606,-226.67 819,-226.67 819,-172.67 606,-172.67"/>
</g>
<!-- trace_event_call&#45;&gt;bpf_prog_array -->
<g id="edge3" class="edge">
<title>trace_event_call:prog_array&#45;&gt;bpf_prog_array:title</title>
<path fill="none" stroke="#9b59b6" stroke-width="1.5" d="M532.5,-182.67C565.19,-182.67 569.5,-210.92 596.43,-216.66"/>
<polygon fill="#9b59b6" stroke="#9b59b6" stroke-width="1.5" points="596.2,-220.15 606.5,-217.67 596.9,-213.19 596.2,-220.15"/>
</g>
<!-- bpf_prog_array&#45;&gt;bpf_prog -->
<g id="edge5" class="edge">
<title>bpf_prog_array:prog&#45;&gt;bpf_prog</title>
<path fill="none" stroke="#e63946" stroke-width="1.5" d="M606.5,-182.67C576.3,-182.67 590.2,-217.67 569.5,-239.67 540.52,-270.46 502.49,-298.79 471.12,-319.74"/>
<polygon fill="#e63946" stroke="#e63946" stroke-width="1.5" points="468.89,-317.03 462.47,-325.45 472.74,-322.87 468.89,-317.03"/>
</g>
<!-- syscall_metadata -->
<g id="node5" class="node">
<title>syscall_metadata</title>
<polygon fill="#e6d8ff" stroke="transparent" points="298,-33.67 298,-69.67 523,-69.67 523,-33.67 298,-33.67"/>
<text text-anchor="start" x="341.5" y="-59.27" font-family="Courier New" font-weight="bold" font-size="10.50">struct syscall_metadata</text>
<polygon fill="none" stroke="black" points="299.5,-34.67 299.5,-52.67 522.5,-52.67 522.5,-34.67 299.5,-34.67"/>
<text text-anchor="start" x="302.5" y="-41.27" font-family="Courier New" font-size="10.50">struct trace_event_call *enter_event</text>
<polygon fill="none" stroke="black" points="298,-33.67 298,-69.67 523,-69.67 523,-33.67 298,-33.67"/>
</g>
<!-- syscall_metadata&#45;&gt;trace_event_call -->
<g id="edge2" class="edge">
<title>syscall_metadata:enter_event&#45;&gt;trace_event_call:title</title>
<path fill="none" stroke="#06a77d" stroke-width="1.5" d="M411.5,-33.67C411.5,19.45 492.36,1.77 531,-34.67 583.27,-83.95 568,-197.45 540,-225.67 502.37,-263.59 422.68,-281.42 412.56,-236.79"/>
<polygon fill="#06a77d" stroke="#06a77d" stroke-width="1.5" points="416.03,-236.24 411.5,-226.67 409.06,-236.98 416.03,-236.24"/>
</g>
</g>
</svg>
